<svg width="152" height="81" viewBox="0 0 152 81" fill="none" xmlns="http://www.w3.org/2000/svg">
<path d="M38.2774 65.2579L32.9551 70.629L0.142639 43.2365L32.9551 15.8439L38.2774 21.2638L11.6661 43.1388L38.2774 65.2579ZM95.6505 0.853638L62.1544 80.3458H54.0489L87.545 0.853638H95.6505ZM113.619 21.2638L118.893 15.8439L151.705 43.2365L118.893 70.629L113.619 65.2579L140.231 43.3341L113.619 21.2638Z" fill="#FF474F"/>
<path d="M38.2774 65.2579L38.9877 65.9618L39.7559 65.1865L38.9166 64.4889L38.2774 65.2579ZM32.9551 70.629L32.3143 71.3967L33.0192 71.9851L33.6655 71.3329L32.9551 70.629ZM0.142639 43.2365L-0.498219 42.4688L-1.41777 43.2365L-0.498219 44.0041L0.142639 43.2365ZM32.9551 15.8439L33.6686 15.1432L33.0224 14.4851L32.3143 15.0762L32.9551 15.8439ZM38.2774 21.2638L38.9124 22.0363L39.7563 21.3426L38.9909 20.5631L38.2774 21.2638ZM11.6661 43.1388L11.0311 42.3663L10.0965 43.1345L11.0269 43.9078L11.6661 43.1388ZM37.5671 64.5541L32.2448 69.9252L33.6655 71.3329L38.9877 65.9618L37.5671 64.5541ZM33.596 69.8614L0.783497 42.4688L-0.498219 44.0041L32.3143 71.3967L33.596 69.8614ZM0.783497 44.0041L33.596 16.6115L32.3143 15.0762L-0.498219 42.4688L0.783497 44.0041ZM32.2416 16.5445L37.5639 21.9644L38.9909 20.5631L33.6686 15.1432L32.2416 16.5445ZM37.6424 20.4913L11.0311 42.3663L12.3011 43.9113L38.9124 22.0363L37.6424 20.4913ZM11.0269 43.9078L37.6382 66.027L38.9166 64.4889L12.3053 42.3698L11.0269 43.9078ZM95.6505 0.853638L96.572 1.24195L97.157 -0.146362H95.6505V0.853638ZM62.1544 80.3458V81.3458H62.8181L63.0759 80.7341L62.1544 80.3458ZM54.0489 80.3458L53.1274 79.9575L52.5424 81.3458H54.0489V80.3458ZM87.545 0.853638V-0.146362H86.8812L86.6235 0.465327L87.545 0.853638ZM94.7289 0.465327L61.2328 79.9575L63.0759 80.7341L96.572 1.24195L94.7289 0.465327ZM62.1544 79.3458H54.0489V81.3458H62.1544V79.3458ZM54.9704 80.7341L88.4665 1.24195L86.6235 0.465327L53.1274 79.9575L54.9704 80.7341ZM87.545 1.85364H95.6505V-0.146362H87.545V1.85364ZM113.619 21.2638L112.902 20.5664L112.147 21.3424L112.981 22.0335L113.619 21.2638ZM118.893 15.8439L119.534 15.0762L118.822 14.4823L118.176 15.1465L118.893 15.8439ZM151.705 43.2365L152.346 44.0041L153.266 43.2365L152.346 42.4688L151.705 43.2365ZM118.893 70.629L118.179 71.3296L118.825 71.9879L119.534 71.3967L118.893 70.629ZM113.619 65.2579L112.983 64.4861L112.141 65.1799L112.906 65.9585L113.619 65.2579ZM140.231 43.3341L140.866 44.1059L141.8 43.3367L140.869 42.5644L140.231 43.3341ZM114.336 21.9611L119.609 16.5412L118.176 15.1465L112.902 20.5664L114.336 21.9611ZM118.252 16.6115L151.064 44.0041L152.346 42.4688L119.534 15.0762L118.252 16.6115ZM151.064 42.4688L118.252 69.8614L119.534 71.3967L152.346 44.0041L151.064 42.4688ZM119.606 69.9284L114.333 64.5573L112.906 65.9585L118.179 71.3296L119.606 69.9284ZM114.255 66.0297L140.866 44.1059L139.595 42.5623L112.983 64.4861L114.255 66.0297ZM140.869 42.5644L114.258 20.4941L112.981 22.0335L139.592 44.1038L140.869 42.5644Z" fill="#FDFFFC" fill-opacity="0.8"/>
</svg>
