<svg width="313" height="313" viewBox="0 0 313 313" fill="none" xmlns="http://www.w3.org/2000/svg">
<circle cx="156.5" cy="156.5" r="156.5" fill="url(#paint0_linear_38_90)"/>
<path d="M183.558 225.942V204.582H129.465V225.989C99.1654 232.581 72.3169 250.012 53.9653 275.007H259.034C240.701 249.995 213.858 232.545 183.558 225.942Z" fill="#E3BC9A"/>
<path d="M74.7339 110.671C69.2597 119.886 70.9095 137.656 78.4271 150.256C85.9448 162.855 96.4995 165.699 101.992 156.461C107.485 147.223 105.836 129.523 98.243 116.877C90.6503 104.23 80.2269 101.457 74.7339 110.671Z" fill="#E3BC9A"/>
<path d="M214.699 116.876C207.198 129.522 205.529 147.244 210.948 156.458C216.367 165.672 227.055 162.899 234.556 150.253C242.056 137.607 243.744 119.885 238.306 110.671C232.868 101.457 222.237 104.231 214.699 116.876Z" fill="#E3BC9A"/>
<path d="M156.462 16.1898C147.608 16.1898 138.841 18.099 130.662 21.8084C122.482 25.5179 115.05 30.9549 108.789 37.8091C96.146 51.6517 89.043 70.4262 89.043 90.0026V140.035C89.043 158.356 95.6907 175.927 107.524 188.883C119.357 201.838 135.406 209.116 152.14 209.116H160.859C177.594 209.116 193.643 201.838 205.476 188.883C217.309 175.927 223.957 158.356 223.957 140.035V90.0026C223.959 80.3016 222.215 70.6952 218.823 61.7331C215.431 52.771 210.458 44.6291 204.189 37.7733C197.92 30.9175 190.478 25.4823 182.288 21.7788C174.099 18.0752 165.322 16.176 156.462 16.1898Z" fill="#E3BC9A"/>
<path d="M156.5 159.785C162.451 159.785 167.272 157.479 167.272 154.411H145.75C145.75 157.386 150.572 159.785 156.5 159.785Z" fill="#E3BC9A"/>
<path d="M156.5 189.279C162.954 189.279 169.144 186.715 173.708 182.151C178.272 177.587 180.836 171.397 180.836 164.943H132.164C132.164 171.397 134.728 177.587 139.291 182.151C143.855 186.715 150.045 189.279 156.5 189.279Z" fill="#4A312C"/>
<path d="M202.819 231.802C191.724 241.029 175.138 246.98 156.5 246.98C137.861 246.98 121.276 241.075 110.181 231.802C87.7296 240.591 68.2354 255.574 53.9653 275.007L66.9998 285L73.5278 289.39L89.4998 298L96.4632 300.858L108.5 305.5L123.446 309.627L139 312L151.103 313H166L180.784 310.976L196 308L209.791 303.556L223.5 298L236.099 291.414L248 283.5L259.034 275.007C244.764 255.574 225.27 240.591 202.819 231.802Z" fill="#323432"/>
<path d="M181.689 127.28C181.028 127.838 180.608 128.629 180.517 129.49C180.427 130.35 180.673 131.212 181.205 131.894C181.759 132.559 182.549 132.983 183.409 133.078C184.27 133.173 185.133 132.93 185.818 132.401C188.279 130.419 191.343 129.337 194.503 129.337C197.663 129.337 200.728 130.419 203.188 132.401C203.879 132.961 204.765 133.223 205.649 133.13C206.534 133.037 207.346 132.597 207.905 131.905C208.465 131.214 208.727 130.329 208.634 129.444C208.541 128.559 208.101 127.748 207.409 127.188C203.736 124.311 199.2 122.755 194.533 122.772C189.867 122.788 185.342 124.377 181.689 127.28Z" fill="#4A312C"/>
<path d="M105.521 127.215C104.817 127.772 104.364 128.585 104.26 129.476C104.209 129.918 104.245 130.365 104.366 130.792C104.487 131.219 104.692 131.619 104.967 131.967C105.243 132.315 105.585 132.606 105.973 132.822C106.361 133.039 106.787 133.176 107.229 133.228C108.12 133.332 109.016 133.077 109.719 132.521C112.181 130.532 115.251 129.447 118.416 129.447C121.581 129.447 124.65 130.532 127.112 132.521C127.703 133.006 128.446 133.267 129.211 133.259C129.711 133.261 130.206 133.15 130.657 132.934C131.108 132.718 131.505 132.404 131.818 132.013C132.341 131.326 132.58 130.464 132.486 129.605C132.391 128.746 131.97 127.957 131.31 127.4C127.675 124.438 123.137 122.806 118.448 122.772C113.759 122.738 109.199 124.306 105.521 127.215Z" fill="#4A312C"/>
<path d="M237.448 83.4573C237.445 81.5206 237.015 79.6102 236.191 77.8717C235.367 76.1332 234.17 74.6125 232.691 73.4255C233.989 71.6495 234.897 69.6018 235.351 67.4252C235.805 65.2486 235.795 62.9957 235.322 60.8235C234.848 58.6513 233.922 56.6123 232.609 54.8488C231.295 53.0853 229.626 51.6397 227.717 50.613C228.915 48.2625 229.504 45.6309 229.428 42.9745C229.352 40.3181 228.612 37.7275 227.281 35.455C225.949 33.1825 224.072 31.3057 221.832 30.0074C219.592 28.7091 217.065 28.0336 214.497 28.0466C214.24 28.0466 214.002 28.0466 213.744 28.0466C213.765 25.4448 213.148 22.8801 211.951 20.5921C210.755 18.3042 209.017 16.3678 206.9 14.964C204.784 13.5603 202.358 12.735 199.85 12.5653C197.342 12.3957 194.833 12.8872 192.558 13.9939C191.652 11.5127 190.142 9.31601 188.174 7.61714C186.206 5.91827 183.847 4.77491 181.326 4.29804C178.805 3.82118 176.208 4.027 173.787 4.89554C171.365 5.76407 169.202 7.26582 167.507 9.25501C166.118 7.63629 164.413 6.3406 162.505 5.4533C160.597 4.566 158.53 4.10724 156.438 4.10724C154.346 4.10724 152.278 4.566 150.371 5.4533C148.463 6.3406 146.758 7.63629 145.369 9.25501C143.667 7.30566 141.512 5.8392 139.108 4.99501C136.705 4.15082 134.132 3.95696 131.636 4.43185C129.139 4.90674 126.802 6.03459 124.845 7.70822C122.888 9.38185 121.378 11.5456 120.457 13.9939C118.183 12.888 115.676 12.3964 113.17 12.5651C110.663 12.7338 108.239 13.5572 106.123 14.9586C104.007 16.36 102.269 18.2935 101.07 20.5787C99.872 22.8638 99.2527 25.4261 99.2702 28.0261C99.0324 28.0261 98.7945 28.0261 98.5369 28.0261C94.5684 28.0261 90.7624 29.658 87.9562 32.5627C85.1501 35.4674 83.5736 39.407 83.5736 43.5148C83.5842 45.9931 84.1831 48.4306 85.3177 50.613C83.4081 51.6386 81.7374 53.0827 80.4219 54.8447C79.1064 56.6067 78.1776 58.6444 77.7004 60.8157C77.2231 62.9871 77.2087 65.2401 77.6583 67.4178C78.1079 69.5955 79.0105 71.6457 80.3035 73.4255C78.7542 74.6705 77.5154 76.2814 76.6906 78.1233C75.8658 79.9653 75.479 81.9849 75.5624 84.0132C75.6458 86.0416 76.1971 88.0198 77.1702 89.7825C78.1433 91.5453 79.5098 93.0413 81.1557 94.1455C80.0918 95.267 79.3046 96.6373 78.8606 98.1404C78.4167 99.6434 78.329 101.235 78.6051 102.781C78.8812 104.326 79.5128 105.78 80.4467 107.02C81.3805 108.259 82.589 109.247 83.97 109.901C83.1179 110.535 82.4237 111.37 81.9447 112.337C81.4657 113.303 81.2157 114.374 81.2151 115.46C81.1656 116.401 81.3019 117.343 81.6157 118.228C81.9295 119.112 82.4142 119.921 83.0402 120.605C83.6662 121.29 84.4203 121.835 85.2566 122.207C86.0928 122.579 86.9937 122.771 87.904 122.771C88.8144 122.771 89.7152 122.579 90.5515 122.207C91.3877 121.835 92.1419 121.29 92.7679 120.605C93.3939 119.921 93.8785 119.112 94.1923 118.228C94.5061 117.343 94.6424 116.401 94.5929 115.46C94.5924 114.374 94.3423 113.303 93.8633 112.337C93.3844 111.37 92.6902 110.535 91.8381 109.901C93.4845 109.118 94.8801 107.863 95.8599 106.286C96.8397 104.708 97.3628 102.873 97.3676 100.997C97.3732 98.4317 96.397 95.9681 94.6524 94.1455C96.7718 92.7303 98.4175 90.6722 99.3646 88.2525C100.312 85.8328 100.514 83.1694 99.944 80.6262C101.394 81.1343 102.912 81.4043 104.443 81.4263C107.699 81.4211 110.864 80.3107 113.452 78.2653C116.04 76.2198 117.909 73.3522 118.772 70.1021C120.618 71.9663 122.901 73.302 125.396 73.978C127.891 74.6541 130.513 74.6474 133.005 73.9586C135.497 73.2698 137.773 71.9225 139.611 70.0489C141.448 68.1752 142.784 65.8395 143.486 63.2706C144.762 65.6891 146.643 67.7074 148.933 69.1134C151.222 70.5195 153.835 71.2615 156.497 71.2615C159.159 71.2615 161.772 70.5195 164.062 69.1134C166.351 67.7074 168.233 65.6891 169.509 63.2706C170.213 65.8355 171.548 68.1673 173.384 70.0378C175.22 71.9084 177.494 73.2537 179.982 73.9422C182.471 74.6306 185.09 74.6387 187.582 73.9656C190.075 73.2925 192.356 71.9613 194.203 70.1021C195.07 73.3539 196.942 76.222 199.534 78.2673C202.125 80.3125 205.293 81.4222 208.552 81.4263C210.096 81.4089 211.628 81.1389 213.09 80.6262C212.52 83.1694 212.723 85.8328 213.67 88.2525C214.617 90.6722 216.263 92.7303 218.382 94.1455C217.318 95.267 216.531 96.6373 216.087 98.1404C215.643 99.6434 215.555 101.235 215.831 102.781C216.107 104.326 216.739 105.78 217.673 107.02C218.607 108.259 219.815 109.247 221.196 109.901C220.344 110.535 219.65 111.37 219.171 112.337C218.692 113.303 218.442 114.374 218.441 115.46C218.392 116.401 218.528 117.343 218.842 118.228C219.156 119.112 219.641 119.921 220.267 120.605C220.892 121.29 221.647 121.835 222.483 122.207C223.319 122.579 224.22 122.771 225.13 122.771C226.041 122.771 226.942 122.579 227.778 122.207C228.614 121.835 229.368 121.29 229.994 120.605C230.62 119.921 231.105 119.112 231.419 118.228C231.732 117.343 231.869 116.401 231.819 115.46C231.805 114.363 231.537 113.286 231.037 112.318C230.537 111.351 229.82 110.522 228.945 109.901C230.592 109.118 231.987 107.863 232.967 106.286C233.947 104.708 234.47 102.873 234.475 100.997C234.481 98.4317 233.504 95.9681 231.76 94.1455C233.495 92.9975 234.924 91.4179 235.918 89.5508C236.912 87.6838 237.438 85.5888 237.448 83.4573Z" fill="#4A312C"/>
<path d="M157.849 183.975C157.849 186.956 159.017 188.927 153.802 188.927C148.586 188.927 138.287 183.137 138.287 180.157C138.287 177.177 141.84 179.928 147.056 179.928C152.272 179.928 157.849 180.995 157.849 183.975Z" fill="#FF474F"/>
<path d="M155.263 183.982C155.263 186.967 153.984 188.927 159.198 188.927C164.413 188.927 174.713 183.142 174.713 180.157C174.713 177.173 171.269 179.929 166.054 179.929C160.839 179.929 155.263 180.997 155.263 183.982Z" fill="#FF474F"/>
<path d="M138 165H175.776V165C174.174 170.342 169.258 174 163.682 174H156.213H150.094C144.518 174 139.601 170.342 138 165V165Z" fill="#FDFFFC"/>
<path d="M125.707 202.707C125.077 202.077 125.523 201 126.414 201H131C131.552 201 132 201.448 132 202V206.586C132 207.477 130.923 207.923 130.293 207.293L128 205L125.707 202.707Z" fill="#4A312C"/>
<circle cx="132.5" cy="204.5" r="3.5" fill="#4A312C"/>
<circle cx="137" cy="205" r="4" fill="#4A312C"/>
<circle cx="142.5" cy="205.5" r="4.5" fill="#4A312C"/>
<circle cx="149" cy="206" r="5" fill="#4A312C"/>
<circle cx="156.5" cy="206.5" r="5.5" fill="#4A312C"/>
<circle cx="164" cy="206" r="5" fill="#4A312C"/>
<circle cx="170.5" cy="205.5" r="4.5" fill="#4A312C"/>
<circle cx="176" cy="205" r="4" fill="#4A312C"/>
<circle cx="180.5" cy="204.5" r="3.5" fill="#4A312C"/>
<path d="M187.293 202.707C187.923 202.077 187.477 201 186.586 201H182C181.448 201 181 201.448 181 202V206.586C181 207.477 182.077 207.923 182.707 207.293L185 205L187.293 202.707Z" fill="#4A312C"/>
<defs>
<linearGradient id="paint0_linear_38_90" x1="1.07756e-06" y1="158.081" x2="313" y2="158.081" gradientUnits="userSpaceOnUse">
<stop stop-color="#FF474F"/>
<stop offset="1" stop-color="#765BDD"/>
</linearGradient>
</defs>
</svg>
