<svg width="141" height="140" viewBox="0 0 141 140" fill="none" xmlns="http://www.w3.org/2000/svg">
<path d="M134.944 49.9707C133.426 46.364 130.905 43.7636 127.651 42.4539L127.607 42.4375C126.126 41.8574 124.55 41.5606 122.959 41.5625H122.784C115.336 41.6746 107.731 48.0047 103.865 57.3152C101.029 64.1238 100.704 71.4465 102.995 76.9043C104.51 80.5136 107.037 83.114 110.304 84.4238L110.34 84.4375C111.821 85.0171 113.398 85.3139 114.988 85.3125C122.508 85.3125 130.191 78.9824 134.129 69.5488C136.929 62.7484 137.238 55.4312 134.944 49.9707ZM105.183 90.1277C100.887 87.5465 96.8266 85.1047 94.1743 80.7187C86.8571 68.5781 82.4383 61.25 70.8528 61.25C59.2672 61.25 54.8376 68.5781 47.504 80.7187C44.8461 85.1101 40.7774 87.5547 36.468 90.1468C31.527 93.1164 26.4219 96.1843 24.218 102.222C23.3612 104.398 22.9296 106.719 22.9465 109.058C22.9465 118.888 30.6028 126.886 40.009 126.886C44.8626 126.886 50.0278 125.204 55.4938 123.424C60.7493 121.712 66.1825 119.943 70.8801 119.943C75.5778 119.943 80.9973 121.712 86.2336 123.424C91.6887 125.193 96.8293 126.875 101.697 126.875C111.089 126.875 118.732 118.877 118.732 109.047C118.739 106.706 118.299 104.386 117.433 102.211C115.229 96.1679 110.121 93.0972 105.183 90.1277ZM41.8684 51.6387C45.1223 55.7211 49.2512 57.9687 53.495 57.9687C54.0743 57.9687 54.6529 57.9258 55.2258 57.8402C64.077 56.5386 69.5922 45.7379 67.7821 33.2308C67.0247 27.9726 65.0012 23.0754 62.1028 19.4441C58.8544 15.3699 54.72 13.125 50.479 13.125C49.8996 13.125 49.3211 13.168 48.7481 13.2535C39.8969 14.5551 34.3817 25.3558 36.1919 37.8629C36.9465 43.1129 38.97 48.0047 41.8684 51.6387ZM86.4825 57.8402C87.0555 57.9258 87.634 57.9687 88.2133 57.9687C92.4598 57.9687 96.586 55.7211 99.8399 51.6387C102.736 48.0047 104.748 43.1129 105.514 37.8574C107.324 25.3558 101.809 14.5551 92.9575 13.248C92.3845 13.1625 91.806 13.1195 91.2266 13.1195C86.9856 13.125 82.8512 15.3699 79.6028 19.4441C76.7044 23.0754 74.6809 27.9726 73.9262 33.2363C72.1161 45.7379 77.6313 56.5386 86.4825 57.8402ZM31.3657 84.4375L31.404 84.4238C34.6661 83.114 37.1899 80.5164 38.702 76.9097C40.9934 71.441 40.6708 64.1265 37.8407 57.3179C33.9223 47.8953 26.2415 41.5625 18.7301 41.5625C17.1395 41.5602 15.5626 41.857 14.0817 42.4375L14.0434 42.4511C10.7895 43.75 8.26568 46.3586 6.75357 49.9652C4.46216 55.434 4.78482 62.7484 7.6149 69.557C11.5333 78.9797 19.2141 85.3125 26.7254 85.3125C28.3133 85.3137 29.8873 85.0169 31.3657 84.4375Z" fill="#765BDD"/>
</svg>
