<svg width="150" height="150" viewBox="0 0 150 150" fill="none" xmlns="http://www.w3.org/2000/svg">
<path d="M143.669 53.54C142.043 49.6758 139.342 46.8896 135.855 45.4863L135.809 45.4688C134.222 44.8472 132.532 44.5292 130.828 44.5313H130.641C122.66 44.6514 114.513 51.4336 110.37 61.4092C107.332 68.7041 106.983 76.5498 109.438 82.3975C111.062 86.2646 113.769 89.0508 117.27 90.4541L117.308 90.4687C118.895 91.0898 120.584 91.4078 122.288 91.4062C130.345 91.4062 138.577 84.624 142.796 74.5166C145.796 67.2305 146.127 59.3906 143.669 53.54ZM111.782 96.5654C107.18 93.7998 102.829 91.1836 99.9873 86.4844C92.1475 73.4766 87.4131 65.625 75 65.625C62.5869 65.625 57.8408 73.4766 49.9834 86.4844C47.1357 91.1895 42.7764 93.8086 38.1592 96.5859C32.8652 99.7676 27.3955 103.055 25.0342 109.523C24.1162 111.855 23.6538 114.342 23.6719 116.848C23.6719 127.38 31.875 135.949 41.9531 135.949C47.1533 135.949 52.6875 134.147 58.544 132.24C64.1748 130.406 69.9961 128.511 75.0293 128.511C80.0625 128.511 85.8691 130.406 91.4795 132.24C97.3242 134.136 102.832 135.937 108.047 135.937C118.11 135.937 126.299 127.368 126.299 116.836C126.307 114.328 125.835 111.842 124.907 109.512C122.546 103.037 117.073 99.7471 111.782 96.5654ZM43.9453 55.3272C47.4316 59.7012 51.8555 62.1094 56.4024 62.1094C57.0231 62.1094 57.6429 62.0633 58.2568 61.9717C67.7402 60.5771 73.6494 49.0049 71.71 35.6045C70.8984 29.9707 68.7305 24.7236 65.625 20.833C62.1445 16.4678 57.7149 14.0625 53.1709 14.0625C52.5502 14.0625 51.9303 14.1085 51.3164 14.2002C41.833 15.5947 35.9238 27.167 37.8633 40.5674C38.6719 46.1924 40.8399 51.4336 43.9453 55.3272ZM91.7461 61.9717C92.36 62.0633 92.9799 62.1094 93.6006 62.1094C98.1504 62.1094 102.571 59.7012 106.058 55.3272C109.16 51.4336 111.316 46.1924 112.137 40.5615C114.076 27.167 108.167 15.5947 98.6836 14.1943C98.0697 14.1027 97.4498 14.0567 96.8291 14.0566C92.2852 14.0625 87.8555 16.4678 84.375 20.833C81.2695 24.7236 79.1016 29.9707 78.293 35.6104C76.3535 49.0049 82.2627 60.5771 91.7461 61.9717ZM32.6924 90.4687L32.7334 90.4541C36.2285 89.0508 38.9326 86.2676 40.5527 82.4033C43.0078 76.5439 42.6621 68.707 39.6299 61.4121C35.4316 51.3164 27.2022 44.5313 19.1543 44.5313C17.4501 44.5288 15.7605 44.8468 14.1738 45.4688L14.1328 45.4834C10.6465 46.875 7.94239 49.6699 6.32227 53.5342C3.86719 59.3936 4.2129 67.2305 7.24512 74.5254C11.4434 84.6211 19.6729 91.4062 27.7207 91.4062C29.422 91.4076 31.1084 91.0896 32.6924 90.4687Z" fill="#765BDD"/>
</svg>
