<svg width="280" height="298" viewBox="0 0 280 298" fill="none" xmlns="http://www.w3.org/2000/svg">
<g clip-path="url(#clip0_43_146)">
<path d="M88.5792 173.185L206.09 173.185L279.979 301.149L162.496 301.149L88.5792 173.185Z" fill="url(#paint0_linear_43_146)"/>
<rect x="-3" y="123.263" width="77.6099" height="175.003" fill="#FF474F"/>
<path fill-rule="evenodd" clip-rule="evenodd" d="M123.508 0.000244366C95.5908 -0.0553238 68.4814 9.36767 46.6173 26.7269L93.1942 85.391C101.512 78.7675 112.047 74.8094 123.506 74.8094C150.4 74.8094 172.202 96.6115 172.202 123.506C172.202 150.4 150.4 172.202 123.506 172.202C96.6114 172.202 74.8092 150.4 74.8092 123.506C74.8092 123.411 74.8095 123.316 74.8101 123.221L4.54413e-05 123.157C-0.0239169 151.074 9.42977 178.173 26.8137 200.018C44.1977 221.862 68.4821 237.158 95.6923 243.403C122.902 249.647 151.426 246.47 176.595 234.391C201.764 222.311 222.087 202.046 234.238 176.912C246.389 151.777 249.648 123.262 243.481 96.0346C237.314 68.8068 222.087 44.4789 200.292 27.0328C178.497 9.58666 151.426 0.0558125 123.508 0.000244366Z" fill="url(#paint1_linear_43_146)"/>
</g>
<defs>
<linearGradient id="paint0_linear_43_146" x1="140.756" y1="263.512" x2="228.867" y2="212.616" gradientUnits="userSpaceOnUse">
<stop stop-color="#05A8AA"/>
<stop offset="1" stop-color="#765BDD"/>
</linearGradient>
<linearGradient id="paint1_linear_43_146" x1="59.3488" y1="198.59" x2="189.46" y2="50.2182" gradientUnits="userSpaceOnUse">
<stop stop-color="#FF474F"/>
<stop offset="1" stop-color="#765BDD"/>
</linearGradient>
<clipPath id="clip0_43_146">
<rect width="280" height="298" fill="white"/>
</clipPath>
</defs>
</svg>
