<svg width="150" height="150" viewBox="0 0 150 150" fill="none" xmlns="http://www.w3.org/2000/svg">
<g clip-path="url(#clip0_88_858)">
<path d="M51.4424 86.0256L106.421 86.0256L140.99 145.895L86.0249 145.895L51.4424 86.0256Z" fill="url(#paint0_linear_88_858)"/>
<rect x="7" y="62.6694" width="36.3103" height="81.8762" fill="#FF474F"/>
<path fill-rule="evenodd" clip-rule="evenodd" d="M67.7841 5.00011C54.7228 4.97412 42.0395 9.38273 31.8102 17.5043L53.6015 44.9507C57.493 41.8518 62.4217 40 67.7829 40C80.3656 40 90.5659 50.2003 90.5659 62.7829C90.5659 75.3656 80.3656 85.5659 67.7829 85.5659C55.2003 85.5659 45 75.3656 45 62.7829C45 62.7385 45.0001 62.6942 45.0004 62.6499L10 62.6198C9.98881 75.6812 14.4118 88.3595 22.545 98.5795C30.6782 108.8 42.0398 115.956 54.7702 118.878C67.5007 121.799 80.8458 120.312 92.6213 114.661C104.397 109.01 113.905 99.5286 119.59 87.7693C125.275 76.0099 126.799 62.6691 123.914 49.9304C121.029 37.1917 113.905 25.8097 103.708 17.6475C93.5111 9.48518 80.8454 5.02611 67.7841 5.00011Z" fill="url(#paint1_linear_88_858)"/>
</g>
<defs>
<linearGradient id="paint0_linear_88_858" x1="75.8535" y1="128.286" x2="117.077" y2="104.474" gradientUnits="userSpaceOnUse">
<stop stop-color="#05A8AA"/>
<stop offset="1" stop-color="#765BDD"/>
</linearGradient>
<linearGradient id="paint1_linear_88_858" x1="37.7667" y1="97.9117" x2="98.6399" y2="28.4949" gradientUnits="userSpaceOnUse">
<stop stop-color="#FF474F"/>
<stop offset="1" stop-color="#765BDD"/>
</linearGradient>
<clipPath id="clip0_88_858">
<rect width="131" height="140" fill="white" transform="translate(10 5)"/>
</clipPath>
</defs>
</svg>
