<svg width="150" height="150" viewBox="0 0 150 150" fill="none" xmlns="http://www.w3.org/2000/svg">
<g clip-path="url(#clip0_88_927)">
<path d="M0 75H150" stroke="#765BDD" stroke-width="10"/>
<path d="M75 150.034L75 0.0336969" stroke="#765BDD" stroke-width="10"/>
<path d="M13 13L58 58" stroke="#765BDD" stroke-width="10" stroke-linecap="round"/>
<path d="M13 58L58 13" stroke="#765BDD" stroke-width="10" stroke-linecap="round"/>
<path d="M93 93L138 138" stroke="#765BDD" stroke-width="10" stroke-linecap="round"/>
<path d="M93 138L138 93" stroke="#765BDD" stroke-width="10" stroke-linecap="round"/>
<path fill-rule="evenodd" clip-rule="evenodd" d="M115.5 64C131.24 64 144 51.2401 144 35.5C144 19.7599 131.24 7 115.5 7C99.7599 7 87 19.7599 87 35.5C87 51.2401 99.7599 64 115.5 64ZM115.5 56.4C127.043 56.4 136.4 47.0428 136.4 35.5C136.4 23.9572 127.043 14.6 115.5 14.6C103.957 14.6 94.6 23.9572 94.6 35.5C94.6 47.0428 103.957 56.4 115.5 56.4Z" fill="#765BDD"/>
<path fill-rule="evenodd" clip-rule="evenodd" d="M35.5 144C51.2401 144 64 131.24 64 115.5C64 99.7599 51.2401 87 35.5 87C19.7599 87 7 99.7599 7 115.5C7 131.24 19.7599 144 35.5 144ZM35.5 136.4C47.0428 136.4 56.4 127.043 56.4 115.5C56.4 103.957 47.0428 94.6 35.5 94.6C23.9572 94.6 14.6 103.957 14.6 115.5C14.6 127.043 23.9572 136.4 35.5 136.4Z" fill="#765BDD"/>
</g>
<defs>
<clipPath id="clip0_88_927">
<rect width="150" height="150" fill="white"/>
</clipPath>
</defs>
</svg>
