<svg width="150" height="150" viewBox="0 0 150 150" fill="none" xmlns="http://www.w3.org/2000/svg">
<g clip-path="url(#clip0_88_882)">
<g clip-path="url(#clip1_88_882)">
<path d="M98.8866 127.742L110.601 127.742L110.477 101.385L101.609 85.5041L110.56 92.31L141.042 96.3936L142.692 84.8441L115.221 80.8843L102.31 71.6861L128.668 71.7273L142.857 48.381L132.627 42.1113L121.944 59.8892L112.705 60.0542C113.986 56.871 114.303 53.3815 113.617 50.0195C112.931 46.6575 111.271 43.5714 108.845 41.1451C106.419 38.7188 103.332 37.0593 99.9705 36.3731C96.6085 35.6868 93.1189 36.004 89.9358 37.2853L89.977 27.9221L107.879 17.3626L101.609 7.13311L78.2626 21.3224L78.3039 47.6798L69.0644 34.728L65.1458 7.2981L53.5964 8.94802L57.7212 39.4715L64.1146 48.4223L48.2342 39.554L22.248 39.389L22.248 51.1034L45.3881 50.9796L57.9274 57.9918L28.2702 55.7231L5.74884 78.2445L13.9984 86.4941L32.725 67.7675L44.6868 68.675C41.0623 73.7314 39.3516 79.9108 39.8595 86.1114C40.3675 92.3119 43.0612 98.1305 47.4603 102.53C51.8595 106.929 57.678 109.622 63.8786 110.13C70.0791 110.638 76.2585 108.928 81.315 105.303L82.2224 117.265L63.4959 135.992L71.7455 144.241L94.2668 121.72L91.9982 92.0625L99.0103 104.602L98.8866 127.742Z" fill="#05A8AA"/>
</g>
</g>
<defs>
<clipPath id="clip0_88_882">
<rect width="150" height="150" fill="white"/>
</clipPath>
<clipPath id="clip1_88_882">
<rect width="140" height="140" fill="white" transform="translate(79.995 -29) rotate(45)"/>
</clipPath>
</defs>
</svg>
