<svg width="184" height="184" viewBox="0 0 184 184" fill="none" xmlns="http://www.w3.org/2000/svg">
<g clip-path="url(#clip0_29_388)">
<path d="M109.466 145.546L120.344 145.546L120.229 121.071L111.994 106.325L120.305 112.645L148.61 116.437L150.142 105.712L124.633 102.036L112.645 93.4943L137.12 93.5326L150.296 71.8538L140.797 66.032L130.877 82.54L122.297 82.6932C123.487 79.7374 123.781 76.4971 123.144 73.3753C122.507 70.2534 120.966 67.3878 118.713 65.1348C116.46 62.8818 113.594 61.3409 110.472 60.7036C107.351 60.0664 104.11 60.3609 101.155 61.5507L101.193 52.8562L117.816 43.051L111.994 33.5522L90.3152 46.728L90.3535 71.2027L81.774 59.176L78.1353 33.7054L67.4109 35.2375L71.241 63.5807L77.1778 71.8921L62.4317 63.6573L38.3016 63.5041L38.3016 74.3817L59.7888 74.2668L71.4325 80.7781L43.8937 78.6715L22.981 99.5842L30.6413 107.245L48.0302 89.8556L59.1377 90.6982C55.7721 95.3935 54.1835 101.132 54.6552 106.889C55.1269 112.647 57.6282 118.05 61.7131 122.135C65.798 126.22 71.201 128.721 76.9586 129.193C82.7162 129.664 88.4543 128.076 93.1495 124.71L93.9922 135.818L76.6032 153.206L84.2636 160.867L105.176 139.954L103.07 112.415L109.581 124.059L109.466 145.546Z" fill="#05A8AA"/>
</g>
<defs>
<clipPath id="clip0_29_388">
<rect width="130" height="130" fill="white" transform="translate(91.9239) rotate(45)"/>
</clipPath>
</defs>
</svg>
