<svg width="50" height="50" viewBox="0 0 50 50" fill="none" xmlns="http://www.w3.org/2000/svg">
<g clip-path="url(#clip0_85_833)">
<path fill-rule="evenodd" clip-rule="evenodd" d="M17.1882 3.06049C17.1881 2.49434 17.3882 1.94493 17.7557 1.50218C18.1233 1.05943 18.6365 0.749568 19.2114 0.623318C23.021 -0.209457 26.9771 -0.207748 30.786 0.628317C31.3614 0.754078 31.8752 1.06373 32.2433 1.50652C32.6113 1.94932 32.8118 2.499 32.8118 3.06549V7.68237C32.8118 8.12114 32.9322 8.55219 33.1607 8.93218C33.3893 9.31216 33.718 9.62771 34.1138 9.84709C34.5097 10.0665 34.9587 10.182 35.4158 10.182C35.8729 10.182 36.3219 10.0665 36.7177 9.84708L40.8866 7.53489C41.3981 7.25149 41.9947 7.14338 42.5786 7.22832C43.1624 7.31326 43.6989 7.58618 44.0999 8.00232C46.7501 10.7549 48.726 14.0412 49.8833 17.621C50.0581 18.1624 50.036 18.7447 49.8207 19.2725C49.6055 19.8003 49.2097 20.2422 48.6985 20.5256L44.5296 22.8353C44.1337 23.0547 43.8051 23.3703 43.5765 23.7503C43.348 24.1302 43.2277 24.5613 43.2277 25C43.2277 25.4388 43.348 25.8698 43.5765 26.2498C43.8051 26.6298 44.1337 26.9453 44.5296 27.1647L48.6959 29.4719C49.2066 29.7553 49.6019 30.1968 49.8172 30.724C50.0324 31.2512 50.0548 31.833 49.8807 32.374C48.7313 35.9588 46.7555 39.249 44.0999 42.0002C43.6986 42.416 43.162 42.6884 42.5781 42.7729C41.9942 42.8574 41.3978 42.7489 40.8866 42.4652L36.7177 40.153C36.3219 39.9336 35.8729 39.8181 35.4158 39.8181C34.9587 39.8181 34.5097 39.9336 34.1138 40.153C33.718 40.3724 33.3893 40.6879 33.1607 41.0679C32.9322 41.4479 32.8118 41.8789 32.8118 42.3177V46.9421C32.8112 47.5081 32.6105 48.0572 32.2424 48.4995C31.8744 48.9418 31.3609 49.2511 30.786 49.3768C26.9763 50.2094 23.0203 50.2077 19.2114 49.3717C18.6365 49.2455 18.1233 48.9356 17.7557 48.4929C17.3882 48.0501 17.1881 47.5007 17.1882 46.9346V42.3177C17.1882 41.8789 17.0678 41.4479 16.8393 41.0679C16.6107 40.6879 16.282 40.3724 15.8862 40.153C15.4903 39.9336 15.0413 39.8181 14.5842 39.8181C14.1271 39.8181 13.6781 39.9336 13.2823 40.153L9.11336 42.4652C8.60192 42.7486 8.00531 42.8567 7.42144 42.7717C6.83757 42.6868 6.30111 42.4139 5.9001 41.9977C4.57898 40.626 3.42172 39.1169 2.44988 37.4984C1.47584 35.8807 0.693273 34.1636 0.116745 32.379C-0.0580644 31.8377 -0.0360223 31.2553 0.179256 30.7276C0.394534 30.1998 0.790265 29.7579 1.30154 29.4744L5.46784 27.1647C5.86366 26.9453 6.19235 26.6298 6.42087 26.2498C6.64939 25.8698 6.7697 25.4388 6.7697 25C6.7697 24.5613 6.64939 24.1302 6.42087 23.7503C6.19235 23.3703 5.86366 23.0547 5.46784 22.8353L1.30675 20.5281C0.795554 20.2451 0.399656 19.8038 0.183925 19.2766C-0.0318059 18.7493 -0.0545752 18.1673 0.119349 17.626C1.26909 14.0422 3.24489 10.7529 5.9001 8.00232C6.30095 7.58678 6.83692 7.31423 7.42022 7.22931C8.00352 7.14438 8.59958 7.25213 9.11076 7.53489L13.2823 9.84708C13.6781 10.0665 14.1271 10.182 14.5842 10.182C15.0413 10.182 15.4903 10.0665 15.8862 9.84709C16.282 9.62771 16.6107 9.31216 16.8393 8.93218C17.0678 8.55219 17.1882 8.12114 17.1882 7.68237V3.05799V3.06049ZM25 32.499C27.0718 32.499 29.0588 31.709 30.5238 30.3026C31.9888 28.8963 32.8118 26.9889 32.8118 25C32.8118 23.0112 31.9888 21.1038 30.5238 19.6974C29.0588 18.2911 27.0718 17.501 25 17.501C22.9282 17.501 20.9412 18.2911 19.4762 19.6974C18.0112 21.1038 17.1882 23.0112 17.1882 25C17.1882 26.9889 18.0112 28.8963 19.4762 30.3026C20.9412 31.709 22.9282 32.499 25 32.499Z" fill="#FDFFFC"/>
</g>
<defs>
<clipPath id="clip0_85_833">
<rect width="50" height="50" fill="white"/>
</clipPath>
</defs>
</svg>
