<svg width="51" height="50" viewBox="0 0 51 50" fill="none" xmlns="http://www.w3.org/2000/svg">
<path fill-rule="evenodd" clip-rule="evenodd" d="M17.6882 3.06049C17.6881 2.49434 17.8882 1.94493 18.2557 1.50218C18.6233 1.05943 19.1365 0.749568 19.7114 0.623318C23.521 -0.209457 27.4771 -0.207748 31.286 0.628317C31.8614 0.754078 32.3752 1.06373 32.7433 1.50652C33.1113 1.94932 33.3118 2.499 33.3118 3.06549V7.68237C33.3118 8.12114 33.4322 8.55219 33.6607 8.93217C33.8893 9.31216 34.218 9.62771 34.6138 9.84709C35.0097 10.0665 35.4587 10.182 35.9158 10.182C36.3729 10.182 36.8219 10.0665 37.2177 9.84707L41.3866 7.53489C41.8981 7.25148 42.4947 7.14338 43.0786 7.22832C43.6624 7.31325 44.1989 7.58618 44.5999 8.00232C47.2501 10.7549 49.226 14.0412 50.3833 17.621C50.5581 18.1624 50.536 18.7447 50.3207 19.2725C50.1055 19.8003 49.7097 20.2421 49.1985 20.5256L45.0296 22.8353C44.6337 23.0547 44.305 23.3703 44.0765 23.7503C43.848 24.1302 43.7277 24.5613 43.7277 25C43.7277 25.4388 43.848 25.8698 44.0765 26.2498C44.305 26.6298 44.6337 26.9453 45.0296 27.1647L49.1959 29.4719C49.7066 29.7553 50.1019 30.1968 50.3172 30.724C50.5324 31.2512 50.5548 31.833 50.3806 32.374C49.2313 35.9588 47.2554 39.249 44.5999 42.0002C44.1986 42.416 43.6619 42.6884 43.0781 42.7729C42.4942 42.8574 41.8978 42.7489 41.3866 42.4652L37.2177 40.153C36.8219 39.9336 36.3729 39.8181 35.9158 39.8181C35.4587 39.8181 35.0097 39.9336 34.6138 40.153C34.218 40.3724 33.8893 40.6879 33.6607 41.0679C33.4322 41.4479 33.3118 41.8789 33.3118 42.3177V46.9421C33.3112 47.5081 33.1105 48.0572 32.7424 48.4995C32.3744 48.9418 31.8609 49.2511 31.286 49.3767C27.4763 50.2094 23.5203 50.2077 19.7114 49.3717C19.1365 49.2455 18.6233 48.9356 18.2557 48.4929C17.8882 48.0501 17.6881 47.5007 17.6882 46.9346V42.3177C17.6882 41.8789 17.5678 41.4479 17.3393 41.0679C17.1107 40.6879 16.782 40.3724 16.3862 40.153C15.9903 39.9336 15.5413 39.8181 15.0842 39.8181C14.6271 39.8181 14.1781 39.9336 13.7823 40.153L9.61336 42.4652C9.10192 42.7486 8.50531 42.8567 7.92144 42.7717C7.33757 42.6868 6.80111 42.4139 6.4001 41.9977C5.07898 40.626 3.92172 39.1169 2.94988 37.4983C1.97584 35.8807 1.19327 34.1636 0.616745 32.379C0.441936 31.8377 0.463978 31.2553 0.679256 30.7276C0.894534 30.1998 1.29027 29.7579 1.80154 29.4744L5.96784 27.1647C6.36366 26.9453 6.69235 26.6298 6.92087 26.2498C7.14939 25.8698 7.2697 25.4388 7.2697 25C7.2697 24.5613 7.14939 24.1302 6.92087 23.7503C6.69235 23.3703 6.36366 23.0547 5.96784 22.8353L1.80675 20.5281C1.29555 20.2451 0.899656 19.8038 0.683925 19.2766C0.468194 18.7493 0.445425 18.1673 0.619349 17.626C1.76909 14.0422 3.74489 10.7529 6.4001 8.00232C6.80095 7.58678 7.33692 7.31423 7.92022 7.2293C8.50352 7.14438 9.09958 7.25212 9.61075 7.53489L13.7823 9.84707C14.1781 10.0665 14.6271 10.182 15.0842 10.182C15.5413 10.182 15.9903 10.0665 16.3862 9.84709C16.782 9.62771 17.1107 9.31216 17.3393 8.93217C17.5678 8.55219 17.6882 8.12114 17.6882 7.68237V3.05799V3.06049ZM25.5 32.499C27.5718 32.499 29.5588 31.709 31.0238 30.3026C32.4888 28.8963 33.3118 26.9889 33.3118 25C33.3118 23.0112 32.4888 21.1038 31.0238 19.6974C29.5588 18.2911 27.5718 17.501 25.5 17.501C23.4282 17.501 21.4412 18.2911 19.9762 19.6974C18.5112 21.1038 17.6882 23.0112 17.6882 25C17.6882 26.9889 18.5112 28.8963 19.9762 30.3026C21.4412 31.709 23.4282 32.499 25.5 32.499Z" fill="#FDFFFC"/>
</svg>
