<svg width="50" height="50" viewBox="0 0 50 50" fill="none" xmlns="http://www.w3.org/2000/svg">
<path d="M25 4L4 15.2663L25 30.2877L35.0021 23.1332L25.619 19.0291C25.4258 19.1617 25.2143 19.2308 25 19.2315C24.6184 19.2315 24.2524 19.0146 23.9826 18.6286C23.7127 18.2425 23.5611 17.7189 23.5611 17.173C23.5611 16.6271 23.7127 16.1035 23.9826 15.7174C24.2524 15.3314 24.6184 15.1145 25 15.1145L24.762 16.2212L26.4291 16.9549C26.4293 16.9573 26.4296 16.9597 26.4298 16.9621L28.8898 18.0383L42.8961 24.2034V25.766C42.7024 25.9546 42.5438 26.2079 42.4341 26.5041C42.3244 26.8003 42.2669 27.1303 42.2666 27.4656C42.2669 27.8084 42.327 28.1458 42.4416 28.447C42.5561 28.7482 42.7214 29.0037 42.9225 29.1903C42.2675 32.7315 42.2666 40.7662 42.2666 43.9333C43.7055 45.2707 43.7055 45.3195 45.1444 43.9333C45.1444 40.7666 45.1437 32.7335 44.4888 29.1915C44.69 29.0047 44.8553 28.749 44.9698 28.4475C45.0843 28.1461 45.1443 27.8085 45.1444 27.4654C45.1444 27.1299 45.087 26.7994 44.9773 26.5028C44.8676 26.2062 44.7088 25.9525 44.5149 25.7637V22.4933L39.1799 20.1449L46 15.2663L25 4ZM12.7356 24.5064L11.5554 34.6367C13.9093 35.077 16.7251 37.0344 19.3137 39.3489C20.7859 40.6653 22.1648 42.1102 23.2847 43.5122C23.9692 44.369 24.5416 45.1911 25 46C25.4584 45.191 26.0308 44.369 26.7153 43.5122C27.8352 42.1102 29.214 40.6653 30.6863 39.3489C33.2749 37.0344 36.0907 35.077 38.4446 34.6367L37.2643 24.5064H36.7022L25 32.877L13.2976 24.5064H12.7356Z" fill="#FDFFFC"/>
</svg>
