<svg width="42" height="42" viewBox="0 0 42 42" fill="none" xmlns="http://www.w3.org/2000/svg">
<path d="M21 0L0 11.2663L21 26.2877L31.0021 19.1332L21.619 15.0291C21.4258 15.1617 21.2143 15.2308 21 15.2315C20.6184 15.2315 20.2524 15.0146 19.9826 14.6286C19.7127 14.2425 19.5611 13.7189 19.5611 13.173C19.5611 12.6271 19.7127 12.1035 19.9826 11.7174C20.2524 11.3314 20.6184 11.1145 21 11.1145L20.762 12.2212L22.4291 12.9549C22.4293 12.9573 22.4296 12.9597 22.4298 12.9621L24.8898 14.0383L38.8961 20.2034V21.766C38.7024 21.9546 38.5438 22.2079 38.4341 22.5041C38.3244 22.8003 38.2669 23.1304 38.2666 23.4656C38.2669 23.8084 38.327 24.1458 38.4416 24.447C38.5561 24.7482 38.7214 25.0037 38.9225 25.1903C38.2675 28.7315 38.2666 36.7662 38.2666 39.9333C39.7055 41.2707 39.7055 41.3195 41.1444 39.9333C41.1444 36.7666 41.1437 28.7335 40.4888 25.1915C40.69 25.0047 40.8553 24.749 40.9698 24.4475C41.0843 24.1461 41.1443 23.8085 41.1444 23.4654C41.1444 23.1299 41.087 22.7994 40.9773 22.5028C40.8676 22.2062 40.7088 21.9525 40.5149 21.7637V18.4933L35.1799 16.1449L42 11.2663L21 0ZM8.73557 20.5064L7.55541 30.6367C9.90934 31.077 12.7251 33.0344 15.3137 35.3489C16.7859 36.6653 18.1648 38.1102 19.2847 39.5122C19.9692 40.369 20.5416 41.1911 21 42C21.4584 41.191 22.0308 40.369 22.7153 39.5122C23.8352 38.1102 25.214 36.6653 26.6863 35.3489C29.2749 33.0344 32.0907 31.077 34.4446 30.6367L33.2643 20.5064H32.7022L21 28.877L9.29763 20.5064H8.73557Z" fill="#FDFFFC"/>
</svg>
