<svg width="50" height="50" viewBox="0 0 50 50" fill="none" xmlns="http://www.w3.org/2000/svg">
<path d="M18.75 10.4166C18.1975 10.4166 17.6676 10.6361 17.2769 11.0268C16.8862 11.4175 16.6667 11.9474 16.6667 12.5C16.6667 13.0525 16.8862 13.5824 17.2769 13.9731C17.6676 14.3638 18.1975 14.5833 18.75 14.5833C19.3025 14.5833 19.8324 14.3638 20.2231 13.9731C20.6138 13.5824 20.8333 13.0525 20.8333 12.5C20.8333 11.9474 20.6138 11.4175 20.2231 11.0268C19.8324 10.6361 19.3025 10.4166 18.75 10.4166ZM12.8542 10.4166C13.2846 9.19678 14.0828 8.14046 15.1388 7.39329C16.1947 6.64611 17.4564 6.24487 18.75 6.24487C20.0436 6.24487 21.3053 6.64611 22.3613 7.39329C23.4172 8.14046 24.2154 9.19678 24.6458 10.4166H39.5833C40.1359 10.4166 40.6658 10.6361 41.0565 11.0268C41.4472 11.4175 41.6667 11.9474 41.6667 12.5C41.6667 13.0525 41.4472 13.5824 41.0565 13.9731C40.6658 14.3638 40.1359 14.5833 39.5833 14.5833H24.6458C24.2154 15.8032 23.4172 16.8595 22.3613 17.6067C21.3053 18.3538 20.0436 18.7551 18.75 18.7551C17.4564 18.7551 16.1947 18.3538 15.1388 17.6067C14.0828 16.8595 13.2846 15.8032 12.8542 14.5833H10.4167C9.86414 14.5833 9.33424 14.3638 8.94354 13.9731C8.55284 13.5824 8.33334 13.0525 8.33334 12.5C8.33334 11.9474 8.55284 11.4175 8.94354 11.0268C9.33424 10.6361 9.86414 10.4166 10.4167 10.4166H12.8542ZM31.25 22.9166C30.6975 22.9166 30.1676 23.1361 29.7769 23.5268C29.3862 23.9175 29.1667 24.4474 29.1667 25C29.1667 25.5525 29.3862 26.0824 29.7769 26.4731C30.1676 26.8638 30.6975 27.0833 31.25 27.0833C31.8025 27.0833 32.3324 26.8638 32.7231 26.4731C33.1138 26.0824 33.3333 25.5525 33.3333 25C33.3333 24.4474 33.1138 23.9175 32.7231 23.5268C32.3324 23.1361 31.8025 22.9166 31.25 22.9166ZM25.3542 22.9166C25.7846 21.6968 26.5828 20.6405 27.6388 19.8933C28.6947 19.1461 29.9564 18.7449 31.25 18.7449C32.5436 18.7449 33.8053 19.1461 34.8613 19.8933C35.9172 20.6405 36.7154 21.6968 37.1458 22.9166H39.5833C40.1359 22.9166 40.6658 23.1361 41.0565 23.5268C41.4472 23.9175 41.6667 24.4474 41.6667 25C41.6667 25.5525 41.4472 26.0824 41.0565 26.4731C40.6658 26.8638 40.1359 27.0833 39.5833 27.0833H37.1458C36.7154 28.3032 35.9172 29.3595 34.8613 30.1067C33.8053 30.8538 32.5436 31.2551 31.25 31.2551C29.9564 31.2551 28.6947 30.8538 27.6388 30.1067C26.5828 29.3595 25.7846 28.3032 25.3542 27.0833H10.4167C9.86414 27.0833 9.33424 26.8638 8.94354 26.4731C8.55284 26.0824 8.33334 25.5525 8.33334 25C8.33334 24.4474 8.55284 23.9175 8.94354 23.5268C9.33424 23.1361 9.86414 22.9166 10.4167 22.9166H25.3542ZM18.75 35.4166C18.1975 35.4166 17.6676 35.6361 17.2769 36.0268C16.8862 36.4175 16.6667 36.9474 16.6667 37.5C16.6667 38.0525 16.8862 38.5824 17.2769 38.9731C17.6676 39.3638 18.1975 39.5833 18.75 39.5833C19.3025 39.5833 19.8324 39.3638 20.2231 38.9731C20.6138 38.5824 20.8333 38.0525 20.8333 37.5C20.8333 36.9474 20.6138 36.4175 20.2231 36.0268C19.8324 35.6361 19.3025 35.4166 18.75 35.4166ZM12.8542 35.4166C13.2846 34.1968 14.0828 33.1405 15.1388 32.3933C16.1947 31.6461 17.4564 31.2449 18.75 31.2449C20.0436 31.2449 21.3053 31.6461 22.3613 32.3933C23.4172 33.1405 24.2154 34.1968 24.6458 35.4166H39.5833C40.1359 35.4166 40.6658 35.6361 41.0565 36.0268C41.4472 36.4175 41.6667 36.9474 41.6667 37.5C41.6667 38.0525 41.4472 38.5824 41.0565 38.9731C40.6658 39.3638 40.1359 39.5833 39.5833 39.5833H24.6458C24.2154 40.8032 23.4172 41.8595 22.3613 42.6067C21.3053 43.3538 20.0436 43.7551 18.75 43.7551C17.4564 43.7551 16.1947 43.3538 15.1388 42.6067C14.0828 41.8595 13.2846 40.8032 12.8542 39.5833H10.4167C9.86414 39.5833 9.33424 39.3638 8.94354 38.9731C8.55284 38.5824 8.33334 38.0525 8.33334 37.5C8.33334 36.9474 8.55284 36.4175 8.94354 36.0268C9.33424 35.6361 9.86414 35.4166 10.4167 35.4166H12.8542Z" fill="#FDFFFC"/>
</svg>
