<svg width="26" height="26" viewBox="0 0 26 26" fill="none" xmlns="http://www.w3.org/2000/svg">
<path d="M12.875 0.5C11.2335 0.5 9.60803 0.831349 8.09146 1.47513C6.57489 2.11891 5.1969 3.06251 4.03617 4.25206C1.69196 6.65447 0.375 9.91282 0.375 13.3103C0.375 18.9725 3.9625 23.7764 8.925 25.4802C9.55 25.5826 9.75 25.1855 9.75 24.8396V22.6747C6.2875 23.4433 5.55 20.9581 5.55 20.9581C4.975 19.4721 4.1625 19.075 4.1625 19.075C3.025 18.2807 4.25 18.3064 4.25 18.3064C5.5 18.396 6.1625 19.6258 6.1625 19.6258C7.25 21.573 9.0875 20.9965 9.8 20.6891C9.9125 19.8564 10.2375 19.2928 10.5875 18.9725C7.8125 18.6522 4.9 17.5506 4.9 12.6698C4.9 11.2479 5.375 10.1078 6.1875 9.19822C6.0625 8.87796 5.625 7.54569 6.3125 5.81629C6.3125 5.81629 7.3625 5.47041 9.75 7.12294C10.7375 6.84112 11.8125 6.7002 12.875 6.7002C13.9375 6.7002 15.0125 6.84112 16 7.12294C18.3875 5.47041 19.4375 5.81629 19.4375 5.81629C20.125 7.54569 19.6875 8.87796 19.5625 9.19822C20.375 10.1078 20.85 11.2479 20.85 12.6698C20.85 17.5634 17.925 18.6394 15.1375 18.9597C15.5875 19.3568 16 20.1382 16 21.3296V24.8396C16 25.1855 16.2 25.5955 16.8375 25.4802C21.8 23.7636 25.375 18.9725 25.375 13.3103C25.375 11.6281 25.0517 9.96225 24.4235 8.40803C23.7953 6.85381 22.8746 5.44161 21.7138 4.25206C20.5531 3.06251 19.1751 2.11891 17.6585 1.47513C16.142 0.831349 14.5165 0.5 12.875 0.5Z" fill="#FDFFFC"/>
</svg>
