<svg width="35" height="35" viewBox="0 0 35 35" fill="none" xmlns="http://www.w3.org/2000/svg">
<g clip-path="url(#clip0_44_357)">
<path d="M17.5001 2.90503C14.8601 2.90551 12.2697 3.62263 10.0053 4.97989C7.74092 6.33715 5.88742 8.28364 4.64255 10.6117C3.39767 12.9398 2.80812 15.5621 2.93676 18.199C3.06541 20.8359 3.90743 23.3884 5.37302 25.5842C6.83861 27.7801 8.87278 29.5369 11.2585 30.6673C13.6443 31.7976 16.2922 32.2592 18.9197 32.0027C21.5472 31.7462 24.0558 30.7812 26.1779 29.2108C28.3 27.6403 29.956 25.5233 30.9693 23.0854C31.4666 21.8896 30.2751 20.6879 29.0763 21.175C27.0218 22.0073 24.7406 22.0931 22.6293 21.4177C20.518 20.7423 18.7102 19.3484 17.5201 17.4782C16.3301 15.608 15.8331 13.3799 16.1156 11.1813C16.3981 8.98267 17.4422 6.95258 19.0663 5.44399L19.1786 5.32732C19.9822 4.40857 19.3434 2.9167 18.0732 2.9167H17.6853L17.5861 2.90795L17.4986 2.90503H17.5001Z" fill="#FDFFFC" fill-opacity="0.9"/>
</g>
<defs>
<clipPath id="clip0_44_357">
<rect width="35" height="35" fill="white"/>
</clipPath>
</defs>
</svg>
