<svg width="51" height="50" viewBox="0 0 51 50" fill="none" xmlns="http://www.w3.org/2000/svg">
<path fill-rule="evenodd" clip-rule="evenodd" d="M25.5 4.1665C37.0062 4.1665 46.3333 13.4936 46.3333 24.9998C46.3333 36.5061 37.0062 45.8332 25.5 45.8332C13.9937 45.8332 4.66663 36.5061 4.66663 24.9998C4.66663 13.4936 13.9937 4.1665 25.5 4.1665ZM34.875 21.8748C34.0462 21.8748 33.2513 22.2041 32.6653 22.7901C32.0792 23.3762 31.75 24.171 31.75 24.9998C31.75 25.8286 32.0792 26.6235 32.6653 27.2095C33.2513 27.7956 34.0462 28.1248 34.875 28.1248C35.7038 28.1248 36.4986 27.7956 37.0847 27.2095C37.6707 26.6235 38 25.8286 38 24.9998C38 24.171 37.6707 23.3762 37.0847 22.7901C36.4986 22.2041 35.7038 21.8748 34.875 21.8748ZM25.5 21.8748C24.6712 21.8748 23.8763 22.2041 23.2903 22.7901C22.7042 23.3762 22.375 24.171 22.375 24.9998C22.375 25.8286 22.7042 26.6235 23.2903 27.2095C23.8763 27.7956 24.6712 28.1248 25.5 28.1248C26.3288 28.1248 27.1236 27.7956 27.7097 27.2095C28.2957 26.6235 28.625 25.8286 28.625 24.9998C28.625 24.171 28.2957 23.3762 27.7097 22.7901C27.1236 22.2041 26.3288 21.8748 25.5 21.8748ZM16.125 21.8748C15.2962 21.8748 14.5013 22.2041 13.9153 22.7901C13.3292 23.3762 13 24.171 13 24.9998C13 25.8286 13.3292 26.6235 13.9153 27.2095C14.5013 27.7956 15.2962 28.1248 16.125 28.1248C16.9538 28.1248 17.7486 27.7956 18.3347 27.2095C18.9207 26.6235 19.25 25.8286 19.25 24.9998C19.25 24.171 18.9207 23.3762 18.3347 22.7901C17.7486 22.2041 16.9538 21.8748 16.125 21.8748Z" fill="#FDFFFC"/>
</svg>
