<svg width="50" height="50" viewBox="0 0 50 50" fill="none" xmlns="http://www.w3.org/2000/svg">
<path fill-rule="evenodd" clip-rule="evenodd" d="M25 4.16666C36.5062 4.16666 45.8333 13.4937 45.8333 25C45.8333 36.5062 36.5062 45.8333 25 45.8333C13.4937 45.8333 4.16666 36.5062 4.16666 25C4.16666 13.4937 13.4937 4.16666 25 4.16666ZM34.375 21.875C33.5462 21.875 32.7513 22.2042 32.1653 22.7903C31.5792 23.3763 31.25 24.1712 31.25 25C31.25 25.8288 31.5792 26.6236 32.1653 27.2097C32.7513 27.7958 33.5462 28.125 34.375 28.125C35.2038 28.125 35.9986 27.7958 36.5847 27.2097C37.1708 26.6236 37.5 25.8288 37.5 25C37.5 24.1712 37.1708 23.3763 36.5847 22.7903C35.9986 22.2042 35.2038 21.875 34.375 21.875ZM25 21.875C24.1712 21.875 23.3763 22.2042 22.7903 22.7903C22.2042 23.3763 21.875 24.1712 21.875 25C21.875 25.8288 22.2042 26.6236 22.7903 27.2097C23.3763 27.7958 24.1712 28.125 25 28.125C25.8288 28.125 26.6236 27.7958 27.2097 27.2097C27.7958 26.6236 28.125 25.8288 28.125 25C28.125 24.1712 27.7958 23.3763 27.2097 22.7903C26.6236 22.2042 25.8288 21.875 25 21.875ZM15.625 21.875C14.7962 21.875 14.0013 22.2042 13.4153 22.7903C12.8292 23.3763 12.5 24.1712 12.5 25C12.5 25.8288 12.8292 26.6236 13.4153 27.2097C14.0013 27.7958 14.7962 28.125 15.625 28.125C16.4538 28.125 17.2486 27.7958 17.8347 27.2097C18.4208 26.6236 18.75 25.8288 18.75 25C18.75 24.1712 18.4208 23.3763 17.8347 22.7903C17.2486 22.2042 16.4538 21.875 15.625 21.875Z" fill="#FDFFFC"/>
</svg>
