<svg width="26" height="26" viewBox="0 0 26 26" fill="none" xmlns="http://www.w3.org/2000/svg">
<path d="M7.11914 21.9844C6.81935 21.9838 6.52486 21.9053 6.26465 21.7564C5.67871 21.4243 5.31445 20.7798 5.31445 20.0801V5.91995C5.31445 5.21829 5.67871 4.57571 6.26465 4.24368C6.53106 4.09057 6.8337 4.01183 7.14095 4.0157C7.44819 4.01956 7.74876 4.10589 8.01123 4.26565L20.1133 11.5098C20.3655 11.6679 20.5734 11.8876 20.7175 12.148C20.8617 12.4085 20.9373 12.7013 20.9373 12.999C20.9373 13.2967 20.8617 13.5896 20.7175 13.8501C20.5734 14.1105 20.3655 14.3302 20.1133 14.4883L8.00928 21.7344C7.74067 21.8968 7.43301 21.9832 7.11914 21.9844Z" fill="#FDFFFC"/>
</svg>
