<svg width="34" height="34" viewBox="0 0 34 34" fill="none" xmlns="http://www.w3.org/2000/svg">
<path fill-rule="evenodd" clip-rule="evenodd" d="M0 2.55C0 1.8737 0.167912 1.2251 0.466799 0.746877C0.765685 0.26866 1.17106 0 1.59375 0H32.4062C32.8289 0 33.2343 0.26866 33.5332 0.746877C33.8321 1.2251 34 1.8737 34 2.55C34 3.2263 33.8321 3.8749 33.5332 4.35312C33.2343 4.83134 32.8289 5.1 32.4062 5.1H1.59375C1.17106 5.1 0.765685 4.83134 0.466799 4.35312C0.167912 3.8749 0 3.2263 0 2.55ZM0 17C0 16.3237 0.167912 15.6751 0.466799 15.1969C0.765685 14.7187 1.17106 14.45 1.59375 14.45H32.4062C32.8289 14.45 33.2343 14.7187 33.5332 15.1969C33.8321 15.6751 34 16.3237 34 17C34 17.6763 33.8321 18.3249 33.5332 18.8031C33.2343 19.2813 32.8289 19.55 32.4062 19.55H1.59375C1.17106 19.55 0.765685 19.2813 0.466799 18.8031C0.167912 18.3249 0 17.6763 0 17ZM1.59375 28.9C1.17106 28.9 0.765685 29.1687 0.466799 29.6469C0.167912 30.1251 0 30.7737 0 31.45C0 32.1263 0.167912 32.7749 0.466799 33.2531C0.765685 33.7313 1.17106 34 1.59375 34H21.7812C22.2039 34 22.6093 33.7313 22.9082 33.2531C23.2071 32.7749 23.375 32.1263 23.375 31.45C23.375 30.7737 23.2071 30.1251 22.9082 29.6469C22.6093 29.1687 22.2039 28.9 21.7812 28.9H1.59375Z" fill="#FDFFFC"/>
</svg>
