<svg width="50" height="50" viewBox="0 0 50 50" fill="none" xmlns="http://www.w3.org/2000/svg">
<path fill-rule="evenodd" clip-rule="evenodd" d="M8 10.55C8 9.8737 8.16791 9.2251 8.4668 8.74688C8.76568 8.26866 9.17106 8 9.59375 8H40.4063C40.8289 8 41.2343 8.26866 41.5332 8.74688C41.8321 9.2251 42 9.8737 42 10.55C42 11.2263 41.8321 11.8749 41.5332 12.3531C41.2343 12.8313 40.8289 13.1 40.4063 13.1H9.59375C9.17106 13.1 8.76568 12.8313 8.4668 12.3531C8.16791 11.8749 8 11.2263 8 10.55ZM8 25C8 24.3237 8.16791 23.6751 8.4668 23.1969C8.76568 22.7187 9.17106 22.45 9.59375 22.45H40.4063C40.8289 22.45 41.2343 22.7187 41.5332 23.1969C41.8321 23.6751 42 24.3237 42 25C42 25.6763 41.8321 26.3249 41.5332 26.8031C41.2343 27.2813 40.8289 27.55 40.4063 27.55H9.59375C9.17106 27.55 8.76568 27.2813 8.4668 26.8031C8.16791 26.3249 8 25.6763 8 25ZM9.59375 36.9C9.17106 36.9 8.76568 37.1687 8.4668 37.6469C8.16791 38.1251 8 38.7737 8 39.45C8 40.1263 8.16791 40.7749 8.4668 41.2531C8.76568 41.7313 9.17106 42 9.59375 42H29.7813C30.2039 42 30.6093 41.7313 30.9082 41.2531C31.2071 40.7749 31.375 40.1263 31.375 39.45C31.375 38.7737 31.2071 38.1251 30.9082 37.6469C30.6093 37.1687 30.2039 36.9 29.7813 36.9H9.59375Z" fill="#FDFFFC"/>
</svg>
