<svg width="38" height="38" viewBox="0 0 38 38" fill="none" xmlns="http://www.w3.org/2000/svg">
<g clip-path="url(#clip0_38_54)">
<path d="M19 30.0833C19.3878 30.0833 19.7622 30.2257 20.052 30.4834C20.3418 30.7411 20.5269 31.0962 20.5723 31.4814L20.5834 31.6666V33.25C20.5829 33.6535 20.4284 34.0417 20.1514 34.3351C19.8743 34.6286 19.4957 34.8052 19.0928 34.8288C18.69 34.8525 18.2933 34.7214 17.9838 34.4624C17.6743 34.2034 17.4755 33.8359 17.4278 33.4352L17.4167 33.25V31.6666C17.4167 31.2467 17.5835 30.844 17.8805 30.547C18.1774 30.2501 18.5801 30.0833 19 30.0833ZM28.9956 26.7741L29.1445 26.9055L30.2528 28.0139C30.5368 28.2988 30.7016 28.6811 30.7139 29.0832C30.7262 29.4853 30.5849 29.877 30.3189 30.1787C30.0528 30.4805 29.6819 30.6696 29.2815 30.7078C28.881 30.7459 28.481 30.6302 28.1628 30.3841L28.014 30.2527L26.9056 29.1444C26.6324 28.8716 26.4682 28.5084 26.444 28.1231C26.4198 27.7378 26.5372 27.3569 26.7741 27.0521C27.011 26.7473 27.3512 26.5396 27.7306 26.468C28.1099 26.3963 28.5024 26.4658 28.8341 26.6633L28.9956 26.7741ZM11.0945 26.9055C11.3671 27.1782 11.5308 27.5409 11.555 27.9257C11.5792 28.3105 11.4622 28.6909 11.2259 28.9955L11.0945 29.1444L9.98612 30.2527C9.70119 30.5367 9.31885 30.7015 8.91676 30.7138C8.51468 30.7261 8.12299 30.5849 7.82126 30.3188C7.51953 30.0528 7.33039 29.6818 7.29224 29.2814C7.25409 28.8809 7.3698 28.4809 7.61587 28.1627L7.74729 28.0139L8.85562 26.9055C9.15254 26.6087 9.55519 26.442 9.97504 26.442C10.3949 26.442 10.7975 26.6087 11.0945 26.9055ZM6.33337 17.4166C6.73693 17.4171 7.12509 17.5716 7.41854 17.8486C7.71199 18.1257 7.88857 18.5043 7.91223 18.9072C7.93588 19.31 7.8048 19.7067 7.54578 20.0162C7.28677 20.3257 6.91935 20.5245 6.51862 20.5722L6.33337 20.5833H4.75004C4.34648 20.5828 3.95832 20.4283 3.66487 20.1513C3.37142 19.8742 3.19483 19.4956 3.17118 19.0928C3.14753 18.6899 3.2786 18.2932 3.53762 17.9837C3.79664 17.6743 4.16405 17.4754 4.56479 17.4277L4.75004 17.4166H6.33337ZM33.25 17.4166C33.6536 17.4171 34.0418 17.5716 34.3352 17.8486C34.6287 18.1257 34.8052 18.5043 34.8289 18.9072C34.8525 19.31 34.7215 19.7067 34.4625 20.0162C34.2034 20.3257 33.836 20.5245 33.4353 20.5722L33.25 20.5833H31.6667C31.2631 20.5828 30.875 20.4283 30.5815 20.1513C30.2881 19.8742 30.1115 19.4956 30.0878 19.0928C30.0642 18.6899 30.1953 18.2932 30.4543 17.9837C30.7133 17.6743 31.0807 17.4754 31.4815 17.4277L31.6667 17.4166H33.25ZM9.83729 7.61579L9.98612 7.74721L11.0945 8.85554C11.3784 9.14048 11.5433 9.52281 11.5556 9.9249C11.5678 10.327 11.4266 10.7187 11.1606 11.0204C10.8945 11.3221 10.5236 11.5113 10.1231 11.5494C9.72266 11.5876 9.32269 11.4719 9.00445 11.2258L8.85562 11.0944L7.74729 9.98604C7.47509 9.7132 7.31176 9.35045 7.28791 8.96579C7.26405 8.58114 7.38131 8.20098 7.61771 7.8966C7.85411 7.59222 8.1934 7.38451 8.57199 7.31241C8.95059 7.24031 9.34248 7.30877 9.6742 7.50496L9.83729 7.61579ZM30.2528 7.74721C30.5254 8.01985 30.6892 8.38259 30.7134 8.76738C30.7376 9.15217 30.6205 9.53257 30.3842 9.83721L30.2528 9.98604L29.1445 11.0944C28.8595 11.3783 28.4772 11.5432 28.0751 11.5555C27.673 11.5678 27.2813 11.4265 26.9796 11.1605C26.6779 10.8944 26.4887 10.5235 26.4506 10.123C26.4124 9.72258 26.5281 9.32261 26.7742 9.00438L26.9056 8.85554L28.014 7.74721C28.3109 7.45038 28.7135 7.28363 29.1334 7.28363C29.5532 7.28363 29.9559 7.45038 30.2528 7.74721ZM19 3.16663C19.3878 3.16668 19.7622 3.30906 20.052 3.56676C20.3418 3.82446 20.5269 4.17956 20.5723 4.56471L20.5834 4.74996V6.33329C20.5829 6.73685 20.4284 7.12501 20.1514 7.41846C19.8743 7.71191 19.4957 7.8885 19.0928 7.91215C18.69 7.9358 18.2933 7.80472 17.9838 7.54571C17.6743 7.28669 17.4755 6.91928 17.4278 6.51854L17.4167 6.33329V4.74996C17.4167 4.33003 17.5835 3.92731 17.8805 3.63037C18.1774 3.33344 18.5801 3.16663 19 3.16663ZM19 11.0833C20.5512 11.0832 22.0682 11.5388 23.3626 12.3935C24.6571 13.2482 25.6719 14.4643 26.2811 15.8909C26.8903 17.3174 27.067 18.8914 26.7892 20.4175C26.5115 21.9436 25.7915 23.3545 24.7188 24.4749C23.646 25.5953 22.2678 26.3759 20.7552 26.7197C19.2426 27.0635 17.6624 26.9554 16.2107 26.4088C14.7591 25.8622 13.5 24.9012 12.5898 23.6451C11.6797 22.389 11.1586 20.8932 11.0913 19.3435L11.0834 19L11.0913 18.6564C11.1798 16.6182 12.0517 14.6929 13.5252 13.282C14.9987 11.8711 16.96 11.0834 19 11.0833Z" fill="#FDFFFC"/>
</g>
<defs>
<clipPath id="clip0_38_54">
<rect width="38" height="38" fill="white"/>
</clipPath>
</defs>
</svg>
